<svg xmlns="http://www.w3.org/2000/svg" xmlns:xlink="http://www.w3.org/1999/xlink" width="2000" zoomAndPan="magnify" viewBox="0 0 1500 1499.999933" height="2000" preserveAspectRatio="xMidYMid meet" version="1.0"><defs><g/></defs><path fill="#494ef1" d="M 375 0 L 1125 0 C 1131.136719 0 1137.269531 0.152344 1143.398438 0.453125 C 1149.53125 0.753906 1155.648438 1.203125 1161.757812 1.804688 C 1167.863281 2.40625 1173.953125 3.160156 1180.023438 4.058594 C 1186.09375 4.960938 1192.140625 6.007812 1198.160156 7.207031 C 1204.179688 8.402344 1210.164062 9.746094 1216.117188 11.238281 C 1222.070312 12.730469 1227.984375 14.367188 1233.855469 16.148438 C 1239.730469 17.929688 1245.554688 19.851562 1251.332031 21.921875 C 1257.113281 23.988281 1262.835938 26.195312 1268.507812 28.546875 C 1274.175781 30.894531 1279.785156 33.378906 1285.332031 36.003906 C 1290.878906 38.628906 1296.359375 41.386719 1301.773438 44.28125 C 1307.1875 47.171875 1312.523438 50.195312 1317.789062 53.351562 C 1323.050781 56.507812 1328.234375 59.789062 1333.339844 63.199219 C 1338.441406 66.609375 1343.457031 70.140625 1348.386719 73.796875 C 1353.316406 77.453125 1358.152344 81.226562 1362.898438 85.121094 C 1367.640625 89.015625 1372.285156 93.023438 1376.835938 97.144531 C 1381.382812 101.265625 1385.824219 105.496094 1390.164062 109.835938 C 1394.503906 114.175781 1398.734375 118.617188 1402.855469 123.164062 C 1406.976562 127.710938 1410.984375 132.359375 1414.878906 137.101562 C 1418.773438 141.847656 1422.546875 146.683594 1426.203125 151.613281 C 1429.859375 156.542969 1433.390625 161.558594 1436.800781 166.660156 C 1440.210938 171.765625 1443.492188 176.949219 1446.648438 182.210938 C 1449.804688 187.476562 1452.828125 192.8125 1455.71875 198.226562 C 1458.613281 203.640625 1461.371094 209.117188 1463.996094 214.667969 C 1466.621094 220.214844 1469.105469 225.824219 1471.453125 231.492188 C 1473.804688 237.164062 1476.011719 242.886719 1478.078125 248.667969 C 1480.144531 254.445312 1482.070312 260.269531 1483.851562 266.144531 C 1485.632812 272.015625 1487.269531 277.929688 1488.761719 283.882812 C 1490.253906 289.835938 1491.597656 295.820312 1492.792969 301.839844 C 1493.992188 307.859375 1495.039062 313.90625 1495.941406 319.976562 C 1496.839844 326.046875 1497.59375 332.136719 1498.195312 338.242188 C 1498.796875 344.351562 1499.246094 350.46875 1499.546875 356.597656 C 1499.847656 362.730469 1500 368.863281 1500 375 L 1500 1125 C 1500 1131.136719 1499.847656 1137.269531 1499.546875 1143.398438 C 1499.246094 1149.53125 1498.796875 1155.648438 1498.195312 1161.757812 C 1497.59375 1167.863281 1496.839844 1173.953125 1495.941406 1180.023438 C 1495.039062 1186.09375 1493.992188 1192.140625 1492.792969 1198.160156 C 1491.597656 1204.179688 1490.253906 1210.164062 1488.761719 1216.117188 C 1487.269531 1222.070312 1485.632812 1227.984375 1483.851562 1233.855469 C 1482.070312 1239.730469 1480.144531 1245.554688 1478.078125 1251.332031 C 1476.011719 1257.113281 1473.804688 1262.835938 1471.453125 1268.507812 C 1469.105469 1274.175781 1466.621094 1279.785156 1463.996094 1285.332031 C 1461.371094 1290.878906 1458.613281 1296.359375 1455.71875 1301.773438 C 1452.828125 1307.1875 1449.804688 1312.523438 1446.648438 1317.789062 C 1443.492188 1323.050781 1440.210938 1328.234375 1436.800781 1333.339844 C 1433.390625 1338.441406 1429.859375 1343.457031 1426.203125 1348.386719 C 1422.546875 1353.316406 1418.773438 1358.152344 1414.878906 1362.898438 C 1410.984375 1367.640625 1406.976562 1372.285156 1402.855469 1376.835938 C 1398.734375 1381.382812 1394.503906 1385.824219 1390.164062 1390.164062 C 1385.824219 1394.503906 1381.382812 1398.734375 1376.835938 1402.855469 C 1372.285156 1406.976562 1367.640625 1410.984375 1362.898438 1414.878906 C 1358.152344 1418.773438 1353.316406 1422.546875 1348.386719 1426.203125 C 1343.457031 1429.859375 1338.441406 1433.390625 1333.339844 1436.800781 C 1328.234375 1440.210938 1323.050781 1443.492188 1317.789062 1446.648438 C 1312.523438 1449.804688 1307.1875 1452.828125 1301.773438 1455.71875 C 1296.359375 1458.613281 1290.882812 1461.371094 1285.332031 1463.996094 C 1279.785156 1466.621094 1274.175781 1469.105469 1268.507812 1471.453125 C 1262.835938 1473.804688 1257.113281 1476.011719 1251.332031 1478.078125 C 1245.554688 1480.144531 1239.730469 1482.070312 1233.855469 1483.851562 C 1227.984375 1485.632812 1222.070312 1487.269531 1216.117188 1488.761719 C 1210.164062 1490.253906 1204.179688 1491.597656 1198.160156 1492.792969 C 1192.140625 1493.992188 1186.09375 1495.039062 1180.023438 1495.941406 C 1173.953125 1496.839844 1167.863281 1497.59375 1161.757812 1498.195312 C 1155.648438 1498.796875 1149.53125 1499.246094 1143.398438 1499.546875 C 1137.269531 1499.847656 1131.136719 1500 1125 1500 L 375 1500 C 368.863281 1500 362.730469 1499.847656 356.597656 1499.546875 C 350.46875 1499.246094 344.351562 1498.796875 338.242188 1498.195312 C 332.136719 1497.59375 326.046875 1496.839844 319.976562 1495.941406 C 313.90625 1495.039062 307.859375 1493.992188 301.839844 1492.792969 C 295.820312 1491.597656 289.835938 1490.253906 283.882812 1488.761719 C 277.929688 1487.269531 272.015625 1485.632812 266.144531 1483.851562 C 260.269531 1482.070312 254.445312 1480.144531 248.667969 1478.078125 C 242.886719 1476.011719 237.164062 1473.804688 231.492188 1471.453125 C 225.824219 1469.105469 220.214844 1466.621094 214.667969 1463.996094 C 209.117188 1461.371094 203.640625 1458.613281 198.226562 1455.71875 C 192.8125 1452.828125 187.476562 1449.804688 182.210938 1446.648438 C 176.949219 1443.492188 171.765625 1440.210938 166.660156 1436.800781 C 161.558594 1433.390625 156.542969 1429.859375 151.613281 1426.203125 C 146.683594 1422.546875 141.847656 1418.773438 137.101562 1414.878906 C 132.359375 1410.984375 127.710938 1406.976562 123.164062 1402.855469 C 118.617188 1398.734375 114.175781 1394.503906 109.835938 1390.164062 C 105.496094 1385.824219 101.265625 1381.382812 97.144531 1376.835938 C 93.023438 1372.285156 89.015625 1367.640625 85.121094 1362.898438 C 81.226562 1358.152344 77.453125 1353.316406 73.796875 1348.386719 C 70.140625 1343.457031 66.609375 1338.441406 63.199219 1333.339844 C 59.789062 1328.234375 56.507812 1323.050781 53.351562 1317.789062 C 50.195312 1312.523438 47.171875 1307.1875 44.28125 1301.773438 C 41.386719 1296.359375 38.628906 1290.878906 36.003906 1285.332031 C 33.378906 1279.785156 30.894531 1274.175781 28.546875 1268.507812 C 26.195312 1262.835938 23.988281 1257.113281 21.921875 1251.332031 C 19.851562 1245.554688 17.929688 1239.730469 16.148438 1233.855469 C 14.367188 1227.984375 12.730469 1222.070312 11.238281 1216.117188 C 9.746094 1210.164062 8.402344 1204.179688 7.207031 1198.160156 C 6.007812 1192.140625 4.960938 1186.09375 4.058594 1180.023438 C 3.160156 1173.953125 2.40625 1167.863281 1.804688 1161.757812 C 1.203125 1155.648438 0.753906 1149.53125 0.453125 1143.398438 C 0.152344 1137.269531 0 1131.136719 0 1125 L 0 375 C 0 368.863281 0.152344 362.730469 0.453125 356.597656 C 0.753906 350.46875 1.203125 344.351562 1.804688 338.242188 C 2.40625 332.136719 3.160156 326.046875 4.058594 319.976562 C 4.960938 313.90625 6.007812 307.859375 7.207031 301.839844 C 8.402344 295.820312 9.746094 289.835938 11.238281 283.882812 C 12.730469 277.929688 14.367188 272.015625 16.148438 266.144531 C 17.929688 260.269531 19.851562 254.445312 21.921875 248.667969 C 23.988281 242.886719 26.195312 237.164062 28.546875 231.492188 C 30.894531 225.824219 33.378906 220.214844 36.003906 214.667969 C 38.628906 209.117188 41.386719 203.640625 44.28125 198.226562 C 47.171875 192.8125 50.195312 187.476562 53.351562 182.210938 C 56.507812 176.949219 59.789062 171.765625 63.199219 166.660156 C 66.609375 161.558594 70.140625 156.542969 73.796875 151.613281 C 77.453125 146.683594 81.226562 141.847656 85.121094 137.101562 C 89.015625 132.359375 93.023438 127.710938 97.144531 123.164062 C 101.265625 118.617188 105.496094 114.175781 109.835938 109.835938 C 114.175781 105.496094 118.617188 101.265625 123.164062 97.144531 C 127.710938 93.023438 132.359375 89.015625 137.101562 85.121094 C 141.847656 81.226562 146.683594 77.453125 151.613281 73.796875 C 156.542969 70.140625 161.558594 66.609375 166.660156 63.199219 C 171.765625 59.789062 176.949219 56.507812 182.210938 53.351562 C 187.476562 50.195312 192.8125 47.171875 198.226562 44.28125 C 203.640625 41.386719 209.117188 38.628906 214.667969 36.003906 C 220.214844 33.378906 225.824219 30.894531 231.492188 28.546875 C 237.164062 26.195312 242.886719 23.988281 248.667969 21.921875 C 254.445312 19.851562 260.269531 17.929688 266.144531 16.148438 C 272.015625 14.367188 277.929688 12.730469 283.882812 11.238281 C 289.835938 9.746094 295.820312 8.402344 301.839844 7.207031 C 307.859375 6.007812 313.90625 4.960938 319.976562 4.058594 C 326.046875 3.160156 332.136719 2.40625 338.242188 1.804688 C 344.351562 1.203125 350.46875 0.753906 356.597656 0.453125 C 362.730469 0.152344 368.863281 0 375 0 Z M 375 0 " fill-opacity="1" fill-rule="nonzero"/><g fill="#ffffff" fill-opacity="1"><g transform="translate(117.187531, 1078.124956)"><g><path d="M 455.25 0 L 320.53125 -220.40625 L 177.984375 -220.40625 L 177.984375 0 L 56.4375 0 L 56.4375 -580.46875 L 346.484375 -580.46875 C 415.691406 -580.46875 469.109375 -565.570312 506.734375 -535.78125 C 544.367188 -505.988281 563.1875 -463.210938 563.1875 -407.453125 C 563.1875 -366.804688 551.648438 -331.71875 528.578125 -302.1875 C 505.503906 -272.664062 474.332031 -253.234375 435.0625 -243.890625 L 592.03125 0 Z M 440.828125 -402.515625 C 440.828125 -458.265625 405.117188 -486.140625 333.703125 -486.140625 L 177.984375 -486.140625 L 177.984375 -314.765625 L 337 -314.765625 C 371.0625 -314.765625 396.878906 -322.453125 414.453125 -337.828125 C 432.035156 -353.210938 440.828125 -374.773438 440.828125 -402.515625 Z M 440.828125 -402.515625 "/></g></g><g transform="translate(726.516742, 1078.124956)"><g><path d="M 332.0625 -86.921875 C 363.644531 -86.921875 394.265625 -91.519531 423.921875 -100.71875 C 453.585938 -109.925781 476.523438 -121.671875 492.734375 -135.953125 L 492.734375 -216.296875 L 351.015625 -216.296875 L 351.015625 -306.109375 L 603.96875 -306.109375 L 603.96875 -92.703125 C 573.207031 -61.109375 533.175781 -36.382812 483.875 -18.53125 C 434.570312 -0.6875 382.867188 8.234375 328.765625 8.234375 C 234.285156 8.234375 161.640625 -17.925781 110.828125 -70.25 C 60.015625 -122.570312 34.609375 -196.796875 34.609375 -292.921875 C 34.609375 -388.503906 60.148438 -461.765625 111.234375 -512.703125 C 162.316406 -563.648438 235.789062 -589.125 331.65625 -589.125 C 467.882812 -589.125 554.535156 -538.726562 591.609375 -437.9375 L 479.546875 -404.15625 C 467.460938 -433.550781 448.507812 -455.800781 422.6875 -470.90625 C 396.875 -486.007812 366.53125 -493.5625 331.65625 -493.5625 C 274.519531 -493.5625 231.117188 -476.253906 201.453125 -441.640625 C 171.796875 -407.035156 156.96875 -357.460938 156.96875 -292.921875 C 156.96875 -227.273438 172.28125 -176.53125 202.90625 -140.6875 C 233.53125 -104.84375 276.582031 -86.921875 332.0625 -86.921875 Z M 332.0625 -86.921875 "/></g></g></g></svg>